<mxfile host="app.diagrams.net" modified="2024-03-06T11:02:39.956Z" agent="Mozilla/5.0 (X11; Linux x86_64; rv:123.0) Gecko/20100101 Firefox/123.0" etag="OYRHH99Ji2yDHQSOveKt" version="24.0.1" type="github">
  <diagram name="Page-1" id="404_kxYsZ5X8p2S8uvQf">
    <mxGraphModel dx="1647" dy="-85" grid="1" gridSize="10" guides="1" tooltips="1" connect="1" arrows="1" fold="1" page="1" pageScale="1" pageWidth="850" pageHeight="1100" math="0" shadow="0">
      <root>
        <mxCell id="0" />
        <mxCell id="1" parent="0" />
        <mxCell id="8ftiR1pAZEAG93mxzUA_-40" value="" style="shape=parallelogram;perimeter=parallelogramPerimeter;whiteSpace=wrap;html=1;fixedSize=1;size=143.25;fillColor=#000000;fillOpacity=20;" parent="1" vertex="1">
          <mxGeometry x="582.62" y="1714" width="593.25" height="190" as="geometry" />
        </mxCell>
        <mxCell id="8ftiR1pAZEAG93mxzUA_-39" value="" style="shape=parallelogram;perimeter=parallelogramPerimeter;whiteSpace=wrap;html=1;fixedSize=1;size=143.25;fillColor=#000000;fillOpacity=20;" parent="1" vertex="1">
          <mxGeometry x="582.62" y="1456" width="593.25" height="190" as="geometry" />
        </mxCell>
        <mxCell id="8ftiR1pAZEAG93mxzUA_-38" value="" style="shape=parallelogram;perimeter=parallelogramPerimeter;whiteSpace=wrap;html=1;fixedSize=1;size=143.25;fillColor=#000000;fillOpacity=20;" parent="1" vertex="1">
          <mxGeometry x="582.62" y="1200" width="593.25" height="190" as="geometry" />
        </mxCell>
        <mxCell id="8ftiR1pAZEAG93mxzUA_-18" value="" style="rounded=0;orthogonalLoop=1;jettySize=auto;html=1;startArrow=classic;startFill=1;" parent="1" source="8ftiR1pAZEAG93mxzUA_-8" target="8ftiR1pAZEAG93mxzUA_-17" edge="1">
          <mxGeometry relative="1" as="geometry" />
        </mxCell>
        <mxCell id="8ftiR1pAZEAG93mxzUA_-8" value="" style="verticalLabelPosition=bottom;sketch=0;html=1;fillColor=#A153A0;verticalAlign=top;align=center;pointerEvents=1;shape=mxgraph.cisco_safe.design.actor_1;" parent="1" vertex="1">
          <mxGeometry x="630" y="1846" width="23.5" height="50" as="geometry" />
        </mxCell>
        <mxCell id="8ftiR1pAZEAG93mxzUA_-16" value="" style="rounded=0;orthogonalLoop=1;jettySize=auto;html=1;startArrow=classic;startFill=1;" parent="1" source="8ftiR1pAZEAG93mxzUA_-9" target="8ftiR1pAZEAG93mxzUA_-15" edge="1">
          <mxGeometry relative="1" as="geometry" />
        </mxCell>
        <mxCell id="8ftiR1pAZEAG93mxzUA_-9" value="" style="verticalLabelPosition=bottom;sketch=0;html=1;fillColor=#A153A0;verticalAlign=top;align=center;pointerEvents=1;shape=mxgraph.cisco_safe.design.actor_2;" parent="1" vertex="1">
          <mxGeometry x="700" y="1776" width="19" height="50" as="geometry" />
        </mxCell>
        <mxCell id="8ftiR1pAZEAG93mxzUA_-10" value="" style="verticalLabelPosition=bottom;sketch=0;html=1;fillColor=#A153A0;verticalAlign=top;align=center;pointerEvents=1;shape=mxgraph.cisco_safe.design.actor_2;" parent="1" vertex="1">
          <mxGeometry x="1100" y="1686" width="19" height="50" as="geometry" />
        </mxCell>
        <mxCell id="8ftiR1pAZEAG93mxzUA_-11" value="" style="verticalLabelPosition=bottom;sketch=0;html=1;fillColor=#CC0000;verticalAlign=top;align=center;pointerEvents=1;shape=mxgraph.cisco_safe.design.actor_2;" parent="1" vertex="1">
          <mxGeometry x="1030" y="1180" width="19" height="50" as="geometry" />
        </mxCell>
        <mxCell id="0Rgwea09dTIiz1nyik_j-6" value="" style="rounded=0;orthogonalLoop=1;jettySize=auto;html=1;startArrow=classic;startFill=1;" edge="1" parent="1" source="8ftiR1pAZEAG93mxzUA_-12" target="0Rgwea09dTIiz1nyik_j-5">
          <mxGeometry relative="1" as="geometry" />
        </mxCell>
        <mxCell id="8ftiR1pAZEAG93mxzUA_-12" value="" style="verticalLabelPosition=bottom;sketch=0;html=1;fillColor=#FFFF33;verticalAlign=top;align=center;pointerEvents=1;shape=mxgraph.cisco_safe.design.actor_1;" parent="1" vertex="1">
          <mxGeometry x="1090" y="1490" width="23.5" height="50" as="geometry" />
        </mxCell>
        <mxCell id="8ftiR1pAZEAG93mxzUA_-14" value="" style="endArrow=classic;html=1;rounded=0;exitX=0.959;exitY=0.023;exitDx=0;exitDy=0;exitPerimeter=0;entryX=-0.056;entryY=1.019;entryDx=0;entryDy=0;entryPerimeter=0;startArrow=classic;startFill=1;" parent="1" source="8ftiR1pAZEAG93mxzUA_-8" target="8ftiR1pAZEAG93mxzUA_-9" edge="1">
          <mxGeometry width="50" height="50" relative="1" as="geometry">
            <mxPoint x="566" y="1836" as="sourcePoint" />
            <mxPoint x="616" y="1786" as="targetPoint" />
          </mxGeometry>
        </mxCell>
        <mxCell id="8ftiR1pAZEAG93mxzUA_-15" value="" style="verticalLabelPosition=bottom;sketch=0;html=1;fillColor=#A153A0;verticalAlign=top;align=center;pointerEvents=1;shape=mxgraph.cisco_safe.design.actor_2;" parent="1" vertex="1">
          <mxGeometry x="765" y="1726" width="19" height="50" as="geometry" />
        </mxCell>
        <mxCell id="8ftiR1pAZEAG93mxzUA_-17" value="" style="verticalLabelPosition=bottom;sketch=0;html=1;fillColor=#A153A0;verticalAlign=top;align=center;pointerEvents=1;shape=mxgraph.cisco_safe.design.actor_1;" parent="1" vertex="1">
          <mxGeometry x="750" y="1846" width="23.5" height="50" as="geometry" />
        </mxCell>
        <mxCell id="8ftiR1pAZEAG93mxzUA_-19" value="" style="rounded=0;orthogonalLoop=1;jettySize=auto;html=1;startArrow=classic;startFill=1;exitX=0.977;exitY=1.004;exitDx=0;exitDy=0;exitPerimeter=0;entryX=-0.003;entryY=0.291;entryDx=0;entryDy=0;entryPerimeter=0;" parent="1" source="8ftiR1pAZEAG93mxzUA_-9" target="8ftiR1pAZEAG93mxzUA_-17" edge="1">
          <mxGeometry relative="1" as="geometry">
            <mxPoint x="650" y="1940" as="sourcePoint" />
            <mxPoint x="773" y="1932" as="targetPoint" />
          </mxGeometry>
        </mxCell>
        <mxCell id="8ftiR1pAZEAG93mxzUA_-20" value="" style="rounded=0;orthogonalLoop=1;jettySize=auto;html=1;startArrow=classic;startFill=1;entryX=0.993;entryY=0.517;entryDx=0;entryDy=0;entryPerimeter=0;" parent="1" source="8ftiR1pAZEAG93mxzUA_-21" target="8ftiR1pAZEAG93mxzUA_-17" edge="1">
          <mxGeometry relative="1" as="geometry" />
        </mxCell>
        <mxCell id="8ftiR1pAZEAG93mxzUA_-21" value="" style="verticalLabelPosition=bottom;sketch=0;html=1;fillColor=#A153A0;verticalAlign=top;align=center;pointerEvents=1;shape=mxgraph.cisco_safe.design.actor_1;" parent="1" vertex="1">
          <mxGeometry x="850" y="1840" width="23.5" height="50" as="geometry" />
        </mxCell>
        <mxCell id="8ftiR1pAZEAG93mxzUA_-22" value="" style="rounded=0;orthogonalLoop=1;jettySize=auto;html=1;startArrow=classic;startFill=1;" parent="1" source="8ftiR1pAZEAG93mxzUA_-23" target="8ftiR1pAZEAG93mxzUA_-25" edge="1">
          <mxGeometry relative="1" as="geometry" />
        </mxCell>
        <mxCell id="8ftiR1pAZEAG93mxzUA_-23" value="" style="verticalLabelPosition=bottom;sketch=0;html=1;fillColor=#A153A0;verticalAlign=top;align=center;pointerEvents=1;shape=mxgraph.cisco_safe.design.actor_2;" parent="1" vertex="1">
          <mxGeometry x="891" y="1760" width="19" height="50" as="geometry" />
        </mxCell>
        <mxCell id="8ftiR1pAZEAG93mxzUA_-24" value="" style="endArrow=classic;html=1;rounded=0;exitX=0.959;exitY=0.023;exitDx=0;exitDy=0;exitPerimeter=0;entryX=-0.056;entryY=1.019;entryDx=0;entryDy=0;entryPerimeter=0;startArrow=classic;startFill=1;" parent="1" source="8ftiR1pAZEAG93mxzUA_-21" target="8ftiR1pAZEAG93mxzUA_-23" edge="1">
          <mxGeometry width="50" height="50" relative="1" as="geometry">
            <mxPoint x="776" y="1796" as="sourcePoint" />
            <mxPoint x="826" y="1746" as="targetPoint" />
          </mxGeometry>
        </mxCell>
        <mxCell id="8ftiR1pAZEAG93mxzUA_-25" value="" style="verticalLabelPosition=bottom;sketch=0;html=1;fillColor=#A153A0;verticalAlign=top;align=center;pointerEvents=1;shape=mxgraph.cisco_safe.design.actor_2;" parent="1" vertex="1">
          <mxGeometry x="820" y="1736" width="19" height="50" as="geometry" />
        </mxCell>
        <mxCell id="8ftiR1pAZEAG93mxzUA_-34" value="" style="rounded=0;orthogonalLoop=1;jettySize=auto;html=1;entryX=0.431;entryY=1;entryDx=0;entryDy=0;entryPerimeter=0;startArrow=classic;startFill=1;" parent="1" source="8ftiR1pAZEAG93mxzUA_-26" target="8ftiR1pAZEAG93mxzUA_-10" edge="1">
          <mxGeometry relative="1" as="geometry" />
        </mxCell>
        <mxCell id="8ftiR1pAZEAG93mxzUA_-26" value="" style="verticalLabelPosition=bottom;sketch=0;html=1;fillColor=#A153A0;verticalAlign=top;align=center;pointerEvents=1;shape=mxgraph.cisco_safe.design.actor_1;" parent="1" vertex="1">
          <mxGeometry x="990" y="1826" width="23.5" height="50" as="geometry" />
        </mxCell>
        <mxCell id="8ftiR1pAZEAG93mxzUA_-27" value="" style="rounded=0;orthogonalLoop=1;jettySize=auto;html=1;startArrow=classic;startFill=1;exitX=0.977;exitY=1.004;exitDx=0;exitDy=0;exitPerimeter=0;entryX=-0.003;entryY=0.291;entryDx=0;entryDy=0;entryPerimeter=0;" parent="1" source="8ftiR1pAZEAG93mxzUA_-23" target="8ftiR1pAZEAG93mxzUA_-26" edge="1">
          <mxGeometry relative="1" as="geometry">
            <mxPoint x="860" y="1900" as="sourcePoint" />
            <mxPoint x="983" y="1892" as="targetPoint" />
          </mxGeometry>
        </mxCell>
        <mxCell id="8ftiR1pAZEAG93mxzUA_-28" value="" style="rounded=0;orthogonalLoop=1;jettySize=auto;html=1;startArrow=classic;startFill=1;exitX=0.332;exitY=1.031;exitDx=0;exitDy=0;exitPerimeter=0;entryX=0.896;entryY=-0.026;entryDx=0;entryDy=0;entryPerimeter=0;" parent="1" source="8ftiR1pAZEAG93mxzUA_-25" target="8ftiR1pAZEAG93mxzUA_-17" edge="1">
          <mxGeometry relative="1" as="geometry">
            <mxPoint x="695" y="1886" as="sourcePoint" />
            <mxPoint x="773" y="1921" as="targetPoint" />
          </mxGeometry>
        </mxCell>
        <mxCell id="8ftiR1pAZEAG93mxzUA_-33" value="" style="rounded=0;orthogonalLoop=1;jettySize=auto;html=1;startArrow=classic;startFill=1;" parent="1" source="8ftiR1pAZEAG93mxzUA_-29" target="8ftiR1pAZEAG93mxzUA_-26" edge="1">
          <mxGeometry relative="1" as="geometry" />
        </mxCell>
        <mxCell id="8ftiR1pAZEAG93mxzUA_-29" value="" style="verticalLabelPosition=bottom;sketch=0;html=1;fillColor=#A153A0;verticalAlign=top;align=center;pointerEvents=1;shape=mxgraph.cisco_safe.design.actor_2;" parent="1" vertex="1">
          <mxGeometry x="930" y="1726" width="19" height="50" as="geometry" />
        </mxCell>
        <mxCell id="8ftiR1pAZEAG93mxzUA_-30" value="" style="verticalLabelPosition=bottom;sketch=0;html=1;fillColor=#A153A0;verticalAlign=top;align=center;pointerEvents=1;shape=mxgraph.cisco_safe.design.actor_1;" parent="1" vertex="1">
          <mxGeometry x="1006" y="1700" width="23.5" height="50" as="geometry" />
        </mxCell>
        <mxCell id="8ftiR1pAZEAG93mxzUA_-31" value="" style="rounded=0;orthogonalLoop=1;jettySize=auto;html=1;startArrow=classic;startFill=1;exitX=1.043;exitY=0.668;exitDx=0;exitDy=0;exitPerimeter=0;entryX=-0.003;entryY=0.291;entryDx=0;entryDy=0;entryPerimeter=0;" parent="1" source="8ftiR1pAZEAG93mxzUA_-29" target="8ftiR1pAZEAG93mxzUA_-30" edge="1">
          <mxGeometry relative="1" as="geometry">
            <mxPoint x="908.37" y="1830" as="sourcePoint" />
            <mxPoint x="1031.37" y="1822" as="targetPoint" />
          </mxGeometry>
        </mxCell>
        <mxCell id="0Rgwea09dTIiz1nyik_j-4" value="" style="rounded=0;orthogonalLoop=1;jettySize=auto;html=1;startArrow=classic;startFill=1;" edge="1" parent="1" source="8ftiR1pAZEAG93mxzUA_-36" target="0Rgwea09dTIiz1nyik_j-3">
          <mxGeometry relative="1" as="geometry" />
        </mxCell>
        <mxCell id="8ftiR1pAZEAG93mxzUA_-36" value="" style="verticalLabelPosition=bottom;sketch=0;html=1;fillColor=#FFFF33;verticalAlign=top;align=center;pointerEvents=1;shape=mxgraph.cisco_safe.design.actor_2;" parent="1" vertex="1">
          <mxGeometry x="891" y="1576" width="19" height="50" as="geometry" />
        </mxCell>
        <mxCell id="8ftiR1pAZEAG93mxzUA_-37" value="" style="verticalLabelPosition=bottom;sketch=0;html=1;fillColor=#CC0000;verticalAlign=top;align=center;pointerEvents=1;shape=mxgraph.cisco_safe.design.actor_1;" parent="1" vertex="1">
          <mxGeometry x="867.5" y="1231" width="23.5" height="50" as="geometry" />
        </mxCell>
        <mxCell id="0Rgwea09dTIiz1nyik_j-1" value="" style="rounded=0;orthogonalLoop=1;jettySize=auto;html=1;entryX=0.368;entryY=0;entryDx=0;entryDy=0;entryPerimeter=0;startArrow=classic;startFill=1;exitX=0.766;exitY=1;exitDx=0;exitDy=0;exitPerimeter=0;dashed=1;" edge="1" parent="1" source="8ftiR1pAZEAG93mxzUA_-12" target="8ftiR1pAZEAG93mxzUA_-10">
          <mxGeometry relative="1" as="geometry">
            <mxPoint x="1024" y="1848" as="sourcePoint" />
            <mxPoint x="1118" y="1746" as="targetPoint" />
          </mxGeometry>
        </mxCell>
        <mxCell id="0Rgwea09dTIiz1nyik_j-2" value="" style="rounded=0;orthogonalLoop=1;jettySize=auto;html=1;startArrow=classic;startFill=1;exitX=1.263;exitY=0.54;exitDx=0;exitDy=0;exitPerimeter=0;entryX=-0.085;entryY=0.7;entryDx=0;entryDy=0;entryPerimeter=0;" edge="1" parent="1" source="8ftiR1pAZEAG93mxzUA_-36" target="8ftiR1pAZEAG93mxzUA_-12">
          <mxGeometry relative="1" as="geometry">
            <mxPoint x="960" y="1769" as="sourcePoint" />
            <mxPoint x="1016" y="1725" as="targetPoint" />
          </mxGeometry>
        </mxCell>
        <mxCell id="0Rgwea09dTIiz1nyik_j-3" value="" style="verticalLabelPosition=bottom;sketch=0;html=1;fillColor=#FFFF33;verticalAlign=top;align=center;pointerEvents=1;shape=mxgraph.cisco_safe.design.actor_2;" vertex="1" parent="1">
          <mxGeometry x="792" y="1576" width="19" height="50" as="geometry" />
        </mxCell>
        <mxCell id="0Rgwea09dTIiz1nyik_j-5" value="" style="verticalLabelPosition=bottom;sketch=0;html=1;fillColor=#FFFF33;verticalAlign=top;align=center;pointerEvents=1;shape=mxgraph.cisco_safe.design.actor_1;" vertex="1" parent="1">
          <mxGeometry x="891" y="1490" width="23.5" height="50" as="geometry" />
        </mxCell>
        <mxCell id="0Rgwea09dTIiz1nyik_j-7" value="" style="rounded=0;orthogonalLoop=1;jettySize=auto;html=1;startArrow=classic;startFill=1;exitX=0.474;exitY=0.02;exitDx=0;exitDy=0;exitPerimeter=0;entryX=0.553;entryY=1.04;entryDx=0;entryDy=0;entryPerimeter=0;" edge="1" parent="1" source="8ftiR1pAZEAG93mxzUA_-36" target="0Rgwea09dTIiz1nyik_j-5">
          <mxGeometry relative="1" as="geometry">
            <mxPoint x="901" y="1611" as="sourcePoint" />
            <mxPoint x="821" y="1611" as="targetPoint" />
          </mxGeometry>
        </mxCell>
        <mxCell id="0Rgwea09dTIiz1nyik_j-8" value="" style="rounded=0;orthogonalLoop=1;jettySize=auto;html=1;entryX=0.383;entryY=-0.02;entryDx=0;entryDy=0;entryPerimeter=0;startArrow=classic;startFill=1;exitX=1.053;exitY=1.06;exitDx=0;exitDy=0;exitPerimeter=0;dashed=1;" edge="1" parent="1" source="8ftiR1pAZEAG93mxzUA_-36" target="8ftiR1pAZEAG93mxzUA_-30">
          <mxGeometry relative="1" as="geometry">
            <mxPoint x="1088" y="1586" as="sourcePoint" />
            <mxPoint x="1117" y="1696" as="targetPoint" />
          </mxGeometry>
        </mxCell>
        <mxCell id="0Rgwea09dTIiz1nyik_j-9" value="" style="rounded=0;whiteSpace=wrap;html=1;" vertex="1" parent="1">
          <mxGeometry x="1280" y="1540" width="120" height="60" as="geometry" />
        </mxCell>
      </root>
    </mxGraphModel>
  </diagram>
</mxfile>
